<?xml version="1.0" standalone="no"?>
<!DOCTYPE svg PUBLIC "-//W3C//DTD SVG 20010904//EN"
 "http://www.w3.org/TR/2001/REC-SVG-20010904/DTD/svg10.dtd">
<svg version="1.0" xmlns="http://www.w3.org/2000/svg" 
 width="200.000000pt" height="200.000000pt" viewBox="0 0 250.000000 250.000000"
 preserveAspectRatio="xMidYMid meet">

<g transform="translate(25,225) scale(0.100000,-0.100000)"
fill="#e9ebec" stroke="none">
<path d="M40 1860 l0 -100 460 0 460 0 0 100 0 100 -460 0 -460 0 0 -100z"/>
<path d="M1040 1500 l0 -460 100 0 100 0 0 460 0 460 -100 0 -100 0 0 -460z"/>
<path d="M1400 1500 l0 -460 100 0 100 0 0 460 0 460 -100 0 -100 0 0 -460z"/>
<path d="M1760 1500 l0 -460 100 0 100 0 0 460 0 460 -100 0 -100 0 0 -460z"/>
<path d="M40 1500 l0 -100 460 0 460 0 0 100 0 100 -460 0 -460 0 0 -100z"/>
<path d="M40 1140 l0 -100 460 0 460 0 0 100 0 100 -460 0 -460 0 0 -100z"/>
<path d="M40 500 l0 -460 100 0 100 0 0 460 0 460 -100 0 -100 0 0 -460z"/>
<path d="M400 500 l0 -460 100 0 100 0 0 460 0 460 -100 0 -100 0 0 -460z"/>
<path d="M760 500 l0 -460 100 0 100 0 0 460 0 460 -100 0 -100 0 0 -460z"/>
<path d="M1040 860 l0 -100 460 0 460 0 0 100 0 100 -460 0 -460 0 0 -100z"/>
<path d="M1040 500 l0 -100 460 0 460 0 0 100 0 100 -460 0 -460 0 0 -100z"/>
<path d="M1040 140 l0 -100 460 0 460 0 0 100 0 100 -460 0 -460 0 0 -100z"/>
</g>

</svg>
